<svg width="301" height="347" viewBox="0 0 301 347" fill="none" xmlns="http://www.w3.org/2000/svg">
<path d="M129.333 22.1539C131.2 2.95389 131.333 2.55389 136.4 1.08722C138.667 0.420563 152.533 -0.112762 167.067 0.0205688C190.8 0.287231 193.733 0.553894 195.333 2.68723C197.2 5.22055 198 10.2872 199.467 26.5539C200.133 34.5539 200.8 36.9539 202.267 36.9539C203.467 36.9539 210.133 39.7539 217.333 43.0872L230.4 49.2206L242 40.2872C258.4 27.7539 258.667 27.7539 265.2 32.9539C268.267 35.4872 277.867 45.0872 286.667 54.5539C305.067 74.1539 304.667 71.0872 291.333 87.6205L282.8 98.1539L288.133 108.821C296.267 125.087 298.933 136.954 299.6 160.287C300.4 183.221 298 198.154 290.933 215.754C284.267 232.287 272.533 250.287 268.4 250.287C267.333 250.287 257.067 240.954 245.467 229.621L224.4 208.821L229.2 199.087C240.267 177.354 240.533 153.487 230.133 130.954C223.067 115.487 206.8 100.954 189.467 94.5539C178.8 90.5539 158 89.0872 146.533 91.4872C127.067 95.4872 106.267 111.221 97.7333 128.287C85.4667 152.421 86.8 183.621 100.933 204.821C111.067 220.287 125.333 230.287 143.333 234.954C153.467 237.487 173.067 237.487 185.333 234.954L194.8 232.954L237.067 274.954L279.333 316.954L263.333 346.287L237.333 320.421C211.6 294.954 206.4 291.087 201.733 294.021C200.933 294.554 200 299.754 199.467 305.621C198 322.821 197.067 327.621 195.067 329.621C192.4 332.421 137.733 332.554 134.133 329.887C132.267 328.554 131.333 325.087 130.4 316.154C127.733 290.554 128.8 293.621 120.933 291.754C117.067 290.954 110.267 288.554 106 286.421L98 282.687L90.6667 287.621C86.6667 290.287 79.8667 294.554 75.6 296.954C68.2667 301.087 67.8667 301.087 64.6667 299.087C59.2 295.487 25.3333 261.354 25.3333 259.354C25.3333 258.287 29.3333 252.687 34.1333 246.954C48.1333 230.154 47.6 232.021 42.2667 221.354C39.7333 216.421 36.9333 209.087 35.8667 205.221C34.9333 201.487 33.4667 198.287 32.8 198.154C16.5333 197.354 3.73333 195.754 2.13333 194.421C0.266667 192.954 0 188.421 0 164.821C0 138.554 0.133333 136.954 2.66667 135.621C4.66667 134.554 23.8667 132.021 32.2667 131.621C32.6667 131.621 34.1333 128.421 35.4667 124.554C36.6667 120.821 39.7333 113.487 42.1333 108.421L46.6667 99.3539L36.6667 86.5539C31.2 79.6206 26.6667 72.6872 26.6667 71.3539C26.6667 68.6872 50.1333 43.6205 61.7333 34.0205C69.2 27.6205 68.1333 27.3539 85.7333 40.4206C92.1333 45.0872 98 48.9539 98.6667 48.9539C99.3333 48.9539 102.8 47.2206 106.267 45.0872C109.867 43.0872 116 40.1539 120 38.8206C124 37.4872 127.467 36.2872 127.6 36.2872C127.867 36.1539 128.533 29.8872 129.333 22.1539Z" fill="#ED703C"/>
</svg>
