<svg width="1061" height="553" viewBox="0 0 1061 553" fill="none" xmlns="http://www.w3.org/2000/svg">
<path d="M137.067 1.13333C132 2.6 131.867 3 130 22.2C129.2 29.9333 128.533 36.2 128.267 36.3333C128.133 36.3333 124.667 37.5333 120.667 38.8667C116.667 40.2 110.533 43.1333 106.933 45.1333C103.467 47.2667 100 49 99.3334 49C98.6668 49 92.8001 45.1333 86.4001 40.4667C68.8001 27.4 69.8668 27.6667 62.4001 34.0667C50.8001 43.6667 27.3334 68.7333 27.3334 71.4C27.3334 72.7333 31.8667 79.6667 37.3334 86.6L47.3334 99.4L42.8001 108.467C40.4001 113.533 37.3334 120.867 36.1334 124.6C34.8001 128.467 33.3334 131.667 32.9334 131.667C24.5334 132.067 5.33341 134.6 3.33341 135.667C0.800081 137 0.666748 138.6 0.666748 164.867C0.666748 188.467 0.933415 193 2.80008 194.467C4.40008 195.8 17.2001 197.4 33.4667 198.2C34.1334 198.333 35.6001 201.533 36.5334 205.267C37.6001 209.133 40.4001 216.467 42.9334 221.4C48.2668 232.067 48.8001 230.2 34.8001 247C30.0001 252.733 26.0001 258.333 26.0001 259.4C26.0001 261.4 59.8668 295.533 65.3334 299.133C68.5334 301.133 68.9334 301.133 76.2668 297C80.5334 294.6 87.3334 290.333 91.3334 287.667L98.6668 282.733L106.667 286.467C110.933 288.6 117.733 291 121.6 291.8C129.467 293.667 128.4 290.6 131.067 316.2C132 325.133 132.933 328.6 134.8 329.933C138.4 332.6 193.067 332.467 195.733 329.667C197.733 327.667 198.667 322.867 200.133 305.667C200.667 299.8 201.6 294.6 202.4 294.067C207.067 291.133 212.267 295 238 320.467L264 346.333H662.4H1060.67V331.667V317H670.4H280L237.733 275L195.467 233L186 235C173.733 237.533 154.133 237.533 144 235C126 230.333 111.733 220.333 101.6 204.867C87.4668 183.667 86.1334 152.467 98.4001 128.333C106.933 111.267 127.733 95.5333 147.2 91.5333C158.667 89.1333 179.467 90.6 190.133 94.6C207.467 101 223.733 115.533 230.8 131C241.2 153.533 240.933 177.4 229.867 199.133L225.067 208.867L246.133 229.667C257.733 241 268 250.333 269.067 250.333C273.2 250.333 284.933 232.333 291.6 215.8C298.667 198.2 301.067 183.267 300.267 160.333C299.6 137 296.933 125.133 288.8 108.867L283.467 98.2L292 87.6667C305.333 71.1333 305.733 74.2 287.333 54.6C278.533 45.1333 268.933 35.5333 265.867 33C259.333 27.8 259.067 27.8 242.667 40.3333L231.067 49.2667L218 43.1333C210.8 39.8 204.133 37 202.933 37C201.467 37 200.8 34.6 200.133 26.6C198.667 10.3333 197.867 5.26667 196 2.73333C194.4 0.6 191.467 0.333334 167.733 0.066667C153.2 -0.0666664 139.333 0.466667 137.067 1.13333Z" fill="#ED703C"/>
<path d="M407.467 2.4667C375.867 7.2667 355.067 24.2001 343.2 54.7334C333.733 79.4001 330.667 110.067 331.733 171C332.667 224.467 334.933 241 344.4 261C356.8 287.267 381.067 299.4 418 297.933C446.667 296.733 463.733 287.933 474.533 269L478 263V277.933V293H502.667H527.333V214.333V135.667H479.333H431.333L431.6 161.267L432 187L444.933 186.733C457.467 186.6 457.733 186.6 458.533 189.8C459.6 193.933 458.267 216.733 456.533 225.933C454.133 238.467 446.933 245.933 436 247.133C421.867 248.867 413.867 241.133 410.667 222.867C408.267 209.4 407.867 91.4001 410.133 76.6001C412.933 59.0001 419.867 50.3334 431.467 50.3334C439.6 50.3334 446.4 53.0001 449.333 57.5334C452.8 62.8667 455.333 74.2001 455.333 85.2667V95.6667H491.467H527.6L526.667 83.2667C525.333 66.7334 520.4 47.9334 514.667 37.6667C506.133 22.2001 488.933 10.0667 468 4.20004C458.4 1.53337 420.533 0.466704 407.467 2.4667Z" fill="#0A2E5D"/>
<path d="M630.933 2.3333C597.467 8.3333 578.533 25 568.267 57.6666C560.8 81.2666 558.8 100.733 558.8 152.333C558.8 198.067 559.867 212.467 565.467 234.067C573.467 265.8 589.2 284.467 615.333 292.733C628.133 296.867 639.2 298.333 658.667 298.333C708.133 298.333 734.4 280.6 746 239.667C748.933 229.267 752.667 182.467 750.933 177.933C750.133 175.933 746.8 175.667 716 175.667H682V190.6C681.867 232.6 676 246.6 658 246.867C645.067 247.133 638 237.8 635.467 217C633.6 202.467 633.6 94.4666 635.333 79.6666C637.067 66.0666 640.933 57.5333 647.333 53.2666C651.2 50.6 653.333 50.2 659.867 50.6C667.067 51.1333 668.267 51.6666 672.133 56.2C677.6 62.6 679.333 70.0666 680.267 91.9333L681.067 109H714.8H748.667V96.6C748.667 43.1333 732 15.1333 693.733 4.06663C685.467 1.66663 641.2 0.466631 630.933 2.3333Z" fill="#0A2E5D"/>
<path d="M776.267 3.26665C775.733 3.66665 775.333 69.1333 775.333 148.6V293H811.333H847.333L847.467 185.267C847.6 91.9333 847.867 78.6 849.333 84.3333C850.934 90.2 857.867 125.267 873.334 207C879.2 238.067 888.667 290.333 888.667 291.8C888.667 292.467 902.134 293 919.067 293H949.467L952.934 273.933C961.867 225.933 977.334 141.533 982.134 115C985.067 98.8667 988 83.5333 988.534 81C989.2 78.2 989.734 120.867 989.867 184.6L990 293H1025.33H1060.67V147.667V2.33332H1004.8C952.667 2.33332 948.8 2.46665 948.134 4.59998C947.734 5.93332 943.467 30.3333 938.534 59C921.2 161.4 918.267 179 918.134 177.4C918 176.6 916 164.6 913.467 150.733C910.934 137 905.467 105.8 901.334 81.6667C897.2 57.4 892.267 29.9333 890.534 20.4667C888.8 11 887.334 3.13332 887.334 2.86665C887.334 1.93332 777.067 2.33332 776.267 3.26665Z" fill="#0A2E5D"/>
<path d="M586 377V390.333H606H626V377V363.667H606H586V377Z" fill="#ED703C"/>
<path d="M484.667 439.667V514.333H530H575.333V497.667V481H551.467H527.6L527.067 474.6C526.667 471.133 526.533 445.133 526.533 416.733L526.667 365H505.733H484.667V439.667Z" fill="#ED703C"/>
<path d="M662.533 399.533C654.933 403 648.133 411.533 645.2 421.4C643.2 428.067 642.667 434.2 642.667 453.667C642.667 479.667 644.267 488.6 650.667 497.933C660.933 513.267 684.267 516.067 696.8 503.533C699.6 500.733 702.133 498.333 702.4 498.333C703.067 498.333 701.067 521.8 700.133 523.8C697.333 530.333 686.8 530.467 682.667 524.067L680 519.8L662.8 519.667H645.6L646.533 525.267C647.867 533 653.2 541.667 659.067 545.667C672.667 554.6 702.4 555.533 718.267 547.533C725.6 543.8 731.067 537.933 735.067 529.267L738.667 521.667L739.067 460.6L739.467 399.667H720.667H702V405C702 407.933 701.733 410.333 701.333 410.333C700.933 410.333 698.8 408.333 696.667 405.8C694.4 403.267 690.667 400.333 688.133 399.133C682 396.2 669.467 396.467 662.533 399.533ZM694.667 427.667C699.467 429.533 701.6 435.4 702.667 449.667C703.867 464.467 701.867 476.733 697.867 479.933C693.733 483.4 688.4 482.867 684.533 478.867C681.6 475.667 681.333 474.333 680.933 457.933C680.4 437.933 682 430.733 687.333 428.067C691.333 426.067 690.533 426.067 694.667 427.667Z" fill="#ED703C"/>
<path d="M786.933 398.333C770.533 402.467 760.133 415 756.8 434.467C754.933 445.667 754.933 472.733 756.8 483C758.533 492.467 763.067 501.667 768.267 506.6C782.533 520.2 819.333 521.4 836.533 509C843.733 503.667 848.8 493.267 849.733 481.533L850.4 473H832.133C815.067 473 813.867 473.133 814.533 475.4C815.867 479.267 813.067 490.733 810.533 492.6C807.467 494.733 802 494.733 799.067 492.467C795.467 489.8 794 484.333 794 473.8C794 465.533 794.267 464.067 796.4 464.067C797.6 464.2 810.267 464.067 824.533 463.933L850.4 463.667L849.6 446.6C848.8 427.133 845.867 417.133 838.533 409C831.333 401.133 822.533 397.933 806 397.533C798.267 397.267 789.733 397.667 786.933 398.333ZM810.533 421.8C812.933 424.2 813.733 427.133 814.267 435.933L814.667 442.333H804.4H794V436.467C794 429.4 795.867 423.667 798.933 421.267C802 419 808 419.267 810.533 421.8Z" fill="#ED703C"/>
<path d="M919.333 398.2C913.333 400.067 909.867 402.867 905.067 409.667L900.533 416.333L901.467 407.933L902.4 399.667H882.8H863.333V457V514.333H883.333H903.333V480.333C903.333 451.933 903.733 445.533 905.467 442.2C908.267 436.733 916.667 433 926.4 433H934V415V397L928.4 397.133C925.2 397.133 921.2 397.667 919.333 398.2Z" fill="#ED703C"/>
<path d="M969.6 398.467C953.867 402.2 945.467 411.667 943.733 427.667L942.933 435.667H959.6H976.267L977.067 429.533C977.733 422.733 979.6 420.2 984.667 419C987.067 418.467 989.2 419 991.733 421C994.667 423.4 995.333 424.867 995.333 429.8C995.333 437.8 993.6 440.6 987.6 442.2C984.933 443 976.667 445.133 969.2 447C951.333 451.667 946.267 454.733 941.6 463.4C938.133 469.667 937.733 471.933 937.6 482.733C937.6 496.333 939.2 501 946.4 508.733C957.333 520.067 984 519.667 992.8 507.8C995.6 503.933 998.267 502.333 997.867 504.6C997.733 505.267 997.733 507.667 997.867 509.933L998 514.333H1016.8C1031.47 514.333 1035.2 513.933 1034.4 512.6C1033.87 511.8 1033.07 491.133 1032.67 467L1032 423L1028.4 415.4C1024.27 406.467 1018.4 402.067 1006.67 399C998.133 396.867 978 396.467 969.6 398.467ZM996 471.667C995.867 481.533 995.467 484.2 993.2 487.267C989.467 492.2 982.267 493 978.533 488.867C974.933 484.867 974.933 473.133 978.667 469C980.8 466.467 992.533 460.067 995.333 459.8C995.733 459.667 996 465 996 471.667Z" fill="#ED703C"/>
<path d="M586 457V514.333H606H626V457V399.667H606H586V457Z" fill="#ED703C"/>
</svg>
